<?xml version="1.0" encoding="UTF-8" standalone="no"?>
<!-- Created with Inkscape (http://www.inkscape.org/) -->

<svg
   xmlns:dc="http://purl.org/dc/elements/1.1/"
   xmlns:cc="http://creativecommons.org/ns#"
   xmlns:rdf="http://www.w3.org/1999/02/22-rdf-syntax-ns#"
   xmlns:svg="http://www.w3.org/2000/svg"
   xmlns="http://www.w3.org/2000/svg"
   xmlns:xlink="http://www.w3.org/1999/xlink"
   xmlns:sodipodi="http://sodipodi.sourceforge.net/DTD/sodipodi-0.dtd"
   xmlns:inkscape="http://www.inkscape.org/namespaces/inkscape"
   width="1920"
   height="1080"
   viewBox="0 0 507.99999 285.75001"
   version="1.1"
   id="svg8"
   inkscape:version="0.92.3 (2405546, 2018-03-11)"
   sodipodi:docname="bridge_four_wallpaper.svg"
   inkscape:export-filename="/home/dpkoch/Pictures/bridge_four_wallpaper.png"
   inkscape:export-xdpi="96"
   inkscape:export-ydpi="96">
  <defs
     id="defs2">
    <linearGradient
       inkscape:collect="always"
       id="gray_radial">
      <stop
         id="stop830"
         offset="0"
         style="stop-color:#4c566a;stop-opacity:1" />
      <stop
         id="stop838"
         offset="0.1174306"
         style="stop-color:#4c566a;stop-opacity:1" />
      <stop
         style="stop-color:#2e3440;stop-opacity:1"
         offset="0.95687014"
         id="stop1282" />
      <stop
         style="stop-color:#2e3440;stop-opacity:1"
         offset="1"
         id="stop824" />
    </linearGradient>
    <radialGradient
       inkscape:collect="always"
       xlink:href="#gray_radial"
       id="radialGradient1280"
       cx="254"
       cy="154.12498"
       fx="254"
       fy="154.12498"
       r="254"
       gradientTransform="matrix(1,0,0,0.79006592,0,32.356088)"
       gradientUnits="userSpaceOnUse" />
    <filter
       inkscape:label="Inset"
       inkscape:menu="Shadows and Glows"
       inkscape:menu-tooltip="Shadowy outer bevel"
       style="color-interpolation-filters:sRGB;"
       id="filter1358">
      <feMorphology
         result="result1"
         in="SourceAlpha"
         operator="dilate"
         radius="3.6"
         id="feMorphology1346" />
      <feGaussianBlur
         stdDeviation="3.6"
         in="result1"
         result="result0"
         id="feGaussianBlur1348" />
      <feDiffuseLighting
         surfaceScale="-5"
         id="feDiffuseLighting1352">
        <feDistantLight
           elevation="45"
           azimuth="225"
           id="feDistantLight1350" />
      </feDiffuseLighting>
      <feComposite
         in2="result0"
         operator="in"
         result="result91"
         id="feComposite1354" />
      <feComposite
         in="SourceGraphic"
         in2="result91"
         id="feComposite1356" />
    </filter>
    <filter
       y="-0.25"
       height="1.5"
       inkscape:menu-tooltip="Darkens the edge with an inner blur and adds a flexible glow"
       inkscape:menu="Shadows and Glows"
       inkscape:label="Dark and Glow"
       style="color-interpolation-filters:sRGB;"
       id="filter1730">
      <feGaussianBlur
         stdDeviation="5"
         result="result6"
         id="feGaussianBlur1720" />
      <feComposite
         result="result8"
         in="SourceGraphic"
         operator="atop"
         in2="result6"
         id="feComposite1722" />
      <feComposite
         result="result9"
         operator="over"
         in2="SourceAlpha"
         in="result8"
         id="feComposite1724" />
      <feColorMatrix
         values="1 0 0 0 0 0 1 0 0 0 0 0 1 0 0 0 0 0 1 0 "
         result="result10"
         id="feColorMatrix1726" />
      <feBlend
         in="result10"
         mode="normal"
         in2="result6"
         id="feBlend1728" />
    </filter>
  </defs>
  <sodipodi:namedview
     id="base"
     pagecolor="#ffffff"
     bordercolor="#666666"
     borderopacity="1.0"
     inkscape:pageopacity="0.0"
     inkscape:pageshadow="2"
     inkscape:zoom="0.74166667"
     inkscape:cx="960"
     inkscape:cy="540"
     inkscape:document-units="px"
     inkscape:current-layer="layer2"
     showgrid="false"
     units="px"
     inkscape:window-width="1920"
     inkscape:window-height="1014"
     inkscape:window-x="0"
     inkscape:window-y="45"
     inkscape:window-maximized="0"
     inkscape:snap-bbox="true" />
  <metadata
     id="metadata5">
    <rdf:RDF>
      <cc:Work
         rdf:about="">
        <dc:format>image/svg+xml</dc:format>
        <dc:type
           rdf:resource="http://purl.org/dc/dcmitype/StillImage" />
        <dc:title />
      </cc:Work>
    </rdf:RDF>
  </metadata>
  <g
     inkscape:label="Background"
     inkscape:groupmode="layer"
     id="layer1"
     transform="translate(0,-11.249983)">
    <rect
       style="fill:url(#radialGradient1280);fill-opacity:1;stroke:none;stroke-width:0.46599999;stroke-linecap:square;stroke-linejoin:miter;stroke-miterlimit:4;stroke-dasharray:none;stroke-dashoffset:0;stroke-opacity:1"
       id="rect820"
       width="508"
       height="285.75"
       x="0"
       y="11.249985" />
  </g>
  <g
     inkscape:groupmode="layer"
     id="layer3"
     inkscape:label="Filter" />
  <g
     inkscape:groupmode="layer"
     id="layer2"
     inkscape:label="Glyph">
    <g
       id="g921"
       transform="matrix(0.86763892,0,0,0.86763892,33.619704,18.91109)"
       style="filter:url(#filter1730)">
      <g
         style="fill:#5e81ac"
         transform="matrix(0.26458334,0,0,0.26458334,152.47838,40.30736)"
         id="g906">
	<path
   style="clip-rule:evenodd;fill:#5e81ac;fill-rule:evenodd"
   inkscape:connector-curvature="0"
   d="m 565.48,57.703 c -3.978,4.983 -11.664,3.928 -17.879,4.47 -20.351,1.775 -41.413,3.189 -59.327,7.314 -18.548,4.271 -36.161,8.492 -53.639,13.41 -5.478,1.541 -11.229,2.983 -15.848,6.095 15.94,6.75 32.064,11.213 47.137,17.473 22.415,9.31 43.681,20.258 63.391,32.915 6.437,4.133 12.493,8.762 18.692,13.409 24.392,18.287 47.075,38.525 67.454,61.359 10.08,11.295 20.678,22.505 29.663,34.54 4.651,6.229 8.745,12.074 13.409,18.692 4.572,6.486 8.682,13.148 10.972,21.13 3.148,10.972 2.947,31.027 0.406,44.699 -0.931,5.009 -1.75,10.09 -5.688,10.159 -4.403,0.076 -5.164,-6.401 -7.314,-10.565 -14.189,-27.474 -32.465,-50.534 -52.419,-72.33 -9.894,-10.807 -21.253,-20.356 -32.102,-30.476 -10.756,-10.033 -21.92,-19.503 -33.32,-28.851 -22.984,-18.845 -48.085,-35.587 -74.362,-50.387 -26.71,-15.043 -54.597,-28.345 -81.676,-43.073 -20.603,10.475 -40.922,21.277 -61.359,32.102 -6.785,3.594 -13.769,6.774 -20.317,10.565 -12.922,7.48 -25.726,15.647 -38.197,23.975 -12.262,8.188 -24.51,16.808 -35.759,26.006 -11.344,9.276 -22.089,19.267 -32.914,29.257 -10.829,9.994 -21.778,19.729 -31.695,30.476 -10.012,10.848 -19.709,21.669 -28.444,33.727 -8.605,11.878 -16.954,24.356 -23.975,37.791 -2.238,4.282 -2.683,10.73 -6.908,10.971 -6.825,0.39 -7.428,-16.975 -7.721,-24.787 -0.413,-11.034 -0.232,-22.176 2.032,-30.07 2.357,-8.218 6.567,-14.881 10.972,-21.13 4.672,-6.628 8.736,-12.432 13.41,-18.692 9.013,-12.072 19.619,-23.286 29.663,-34.54 20.128,-22.553 42.922,-42.967 67.454,-61.359 6.212,-4.657 12.209,-9.247 18.692,-13.41 32.509,-20.875 69.436,-36.484 110.527,-49.981 -1.645,-2.217 -4.723,-3.218 -7.314,-4.063 -8.154,-2.66 -17.186,-4.976 -26.006,-7.314 -11.645,-3.087 -23.86,-5.7 -36.165,-8.534 -17.859,-4.112 -38.673,-5.561 -59.733,-7.314 -6.178,-0.515 -13.59,0.406 -17.473,-4.47 -0.318,-8.16 5.896,-13.973 11.378,-18.692 8.468,-7.288 20.561,-17.064 35.759,-16.254 5.906,0.315 12.171,2.436 18.286,4.063 37.235,9.91 72.736,21.991 108.899,34.132 2.892,0.971 6.303,2.769 8.127,2.845 1.662,0.068 5.539,-1.447 8.533,-2.438 36.421,-12.054 70.052,-23.253 108.089,-33.727 5.997,-1.651 11.864,-3.836 17.473,-4.063 15.43,-0.624 26.719,8.848 35.759,16.661 5.301,4.58 11.426,8.991 11.377,18.284 z"
   id="path898" />

	<path
   style="clip-rule:evenodd;fill:#5e81ac;fill-rule:evenodd"
   inkscape:connector-curvature="0"
   d="m 528.503,300.293 c 0.662,-6.943 -3.195,-12.935 -6.096,-17.879 -9.248,-15.771 -19.648,-27.272 -33.32,-39.822 -3.922,-3.6 -8.085,-8.236 -13.003,-11.784 -9.725,-7.016 -18.073,-12.937 -28.444,-20.317 -4.421,-3.146 -11.272,-6.174 -14.223,-10.159 -1.733,-2.34 -5.085,-8.844 -2.845,-11.784 3.696,-4.85 17.324,3.61 22.35,6.095 7.529,3.724 14.574,7.342 20.724,10.565 13.062,6.846 26.494,17.222 37.791,24.787 12.816,8.583 24.795,17.524 36.571,26.413 11.866,8.958 23.485,17.918 34.539,28.038 11.062,10.126 20.614,21.05 30.477,32.508 9.651,11.213 18.324,22.894 26.413,36.166 7.745,12.709 16.186,26.854 18.285,44.698 1.678,14.261 -0.128,31.027 -3.251,43.073 -1.103,4.253 -1.846,10.331 -4.876,10.565 -3.358,0.26 -4.313,-6.743 -5.282,-10.159 -3.123,-11.012 -9.245,-23.178 -13.41,-32.102 -6.89,-14.765 -15.354,-27.092 -22.349,-38.603 -7.874,-12.956 -14.516,-26.35 -23.975,-36.978 -4.766,-5.354 -9.975,-10.374 -14.629,-15.848 -2.263,-2.662 -4.417,-5.79 -6.907,-8.533 -2.248,-2.476 -5.077,-5.717 -8.94,-6.095 0.152,3.101 2.134,6.04 3.657,8.533 4.85,7.934 9.716,14.988 13.41,24.787 2.276,6.04 4.392,12.393 6.501,19.099 1.974,6.274 4.55,12.643 5.689,19.505 3.614,21.774 5.947,44.36 8.127,68.267 0.24,2.642 2.63,21.422 -1.22,22.349 -2.619,0.632 -3.53,-3.111 -4.063,-4.063 -6.585,-11.761 -12.147,-25.28 -17.473,-36.978 -6.646,-14.6 -14.178,-28.025 -22.35,-40.229 -4.31,-6.437 -8.658,-12.345 -13.409,-17.879 -9.578,-11.158 -21.221,-19.997 -32.914,-29.664 -5.625,-4.649 -11.113,-10.596 -18.692,-12.597 -0.012,4.152 2.275,8.228 4.063,11.784 5.425,10.79 11.527,21.359 17.473,32.102 3.975,7.18 7.092,15.149 10.565,22.756 3.455,7.566 6.701,15.16 10.159,22.755 6.591,14.479 15.135,29.1 20.724,45.512 2.736,8.037 5.251,16.771 7.721,25.6 3.96,14.156 7.055,29.52 4.063,46.73 -0.472,1.223 -2.346,-1.146 -3.251,-2.032 -16.07,-15.727 -33.067,-32.018 -49.981,-47.542 -18.419,-16.908 -40.427,-29.21 -62.171,-42.261 2.583,68.142 7.32,136.195 16.254,199.111 0.62,4.37 1.654,8.755 2.438,13.003 0.712,3.863 0.63,8.439 3.656,11.378 6.081,-0.109 10.855,-4.046 15.035,-7.314 12.193,-9.535 24.614,-19.338 36.165,-30.07 7.25,-6.734 14.44,-14.033 22.35,-21.942 3.355,-3.355 6.743,-7.91 10.158,-12.19 2.134,-2.674 8.164,-11.312 11.784,-10.159 4.146,1.322 0.728,18.027 -0.406,23.162 -1.949,8.833 -3.283,15.155 -5.688,21.943 -7.743,21.846 -20.667,33.509 -34.134,48.762 -4.281,4.849 -8.298,10.091 -13.003,14.629 -7.064,6.814 -14.242,12.987 -21.536,19.91 -4.729,4.489 -9.288,8.574 -15.035,12.598 -2.735,1.914 -5.459,3.767 -8.127,5.688 -5.295,3.815 -10.436,7.966 -16.254,11.378 -4.325,2.536 -9.567,4.561 -15.441,7.314 -4.484,2.103 -11.309,7.046 -16.254,6.501 -5.22,-0.574 -7.302,-8.87 -8.533,-15.848 -1.352,-7.65 -2.122,-15.294 -2.438,-21.942 -0.783,-16.444 -2.285,-31.703 -2.438,-46.324 -0.34,-32.412 -1.06,-66.526 -1.22,-96.305 -0.084,-15.735 -0.673,-31.988 0,-47.949 0.688,-16.33 -0.298,-32.445 0.812,-47.949 1.612,-22.494 5.094,-43.789 7.721,-65.422 0.824,-6.787 0.385,-14.301 4.471,-19.911 46.147,3.833 68.991,30.97 96.305,53.638 -4.309,-11.599 -7.746,-22.84 -13.004,-32.914 -3.503,-6.712 -8.148,-13.009 -12.597,-19.099 -13.071,-17.893 -27.206,-35.332 -41.447,-52.419 -4.279,3.149 -8.461,6.669 -13.003,10.159 -8.19,6.292 -14.936,11.093 -26.819,14.628 -4.567,1.359 -10.341,3.006 -15.035,2.844 -2.602,-0.09 -5.809,-1.196 -8.533,-1.625 -8.199,-1.291 -16.308,-3.739 -22.755,-6.908 -10.395,-5.109 -18.346,-13.478 -26.819,-19.911 -13.25,15.376 -26.271,30.992 -38.197,47.543 -6.025,8.362 -12.493,16.399 -17.066,26.006 -4.506,9.466 -8.238,19.571 -12.191,30.477 26.892,-21.329 50.181,-49.781 96.305,-53.231 4.078,5.594 3.635,13.04 4.47,19.911 2.549,20.994 6.101,42.816 7.721,65.422 1.109,15.484 0.127,31.692 0.812,47.949 0.669,15.879 0,31.672 0,47.543 0,30.765 -1.047,64.301 -1.219,96.305 -0.08,14.816 -1.642,29.474 -2.438,46.324 -0.309,6.542 -1.104,14.305 -2.438,21.942 -1.211,6.933 -3.226,15.335 -7.721,16.254 -3.856,0.789 -10.758,-3.29 -15.035,-5.282 -5.139,-2.395 -9.855,-4.51 -13.816,-6.502 -8.198,-4.121 -16.863,-11.213 -23.975,-16.254 -4.06,-2.877 -8.111,-5.537 -11.784,-8.533 -3.579,-2.919 -6.702,-6.587 -10.159,-9.752 -8.978,-8.22 -17.678,-15.645 -25.6,-24.788 -10.277,-11.859 -23.245,-24.729 -32.102,-38.196 -7.881,-11.984 -11.763,-28.596 -15.035,-45.512 -1.049,-5.424 -2.641,-11.814 0.407,-17.066 3.533,-0.722 5.122,2.578 6.908,4.47 5.133,5.438 9.556,12.4 15.035,17.88 7.208,7.208 14.512,14.71 22.349,21.942 7.312,6.749 15.583,12.736 24.381,19.911 3.558,2.901 7.62,6.584 12.19,10.159 3.178,2.485 10.353,8.572 14.628,7.314 3.86,-1.136 5.798,-19.428 6.502,-24.382 8.886,-62.586 13.618,-130.263 16.254,-198.704 -21.903,11.981 -43.332,25.112 -61.765,41.854 -18.353,16.668 -36.442,33.624 -53.638,49.981 -3.753,-22.484 2.593,-42.833 8.127,-60.952 5.521,-18.079 12.914,-34.854 20.724,-50.388 8.121,-16.152 14.781,-32.805 22.756,-48.762 7.884,-15.775 17.943,-30.44 23.568,-47.543 -4.089,0.261 -7.552,3.002 -10.565,5.282 -8.541,6.465 -17.307,14.021 -25.6,21.13 -5.62,4.817 -11.035,9.849 -15.848,15.441 -9.288,10.791 -17.677,24.211 -25.194,37.384 -9.577,16.783 -15.793,34.534 -25.194,53.231 -0.569,1.133 -3.933,9.223 -6.501,8.939 -4.524,-0.499 -1.914,-19.188 -1.625,-22.349 2.11,-23.138 4.508,-46.466 8.127,-68.267 1.154,-6.948 3.686,-13.588 5.689,-19.911 2.083,-6.572 4.282,-12.803 6.502,-18.692 4.788,-12.704 11.869,-21.358 17.473,-33.321 -4.019,0.087 -6.957,3.464 -9.346,6.095 -7.051,7.764 -14.046,16.336 -21.13,24.381 -9.483,10.77 -16.514,23.608 -24.381,36.572 -6.932,11.422 -15.594,24.105 -22.349,38.603 -4.3,9.228 -9.979,20.411 -13.41,32.508 -0.743,2.62 -1.856,10.056 -4.876,10.159 -4.961,0.169 -7.201,-18.776 -7.72,-23.975 -0.986,-9.858 -1.927,-20.198 -0.813,-29.664 2.113,-17.956 10.549,-32.003 18.286,-44.698 8.077,-13.252 16.784,-25.354 26.413,-36.571 28.995,-33.779 63.625,-61.131 101.587,-86.552 11.83,-7.922 24.407,-17.59 38.197,-24.788 5.623,-2.935 13.113,-6.739 20.724,-10.565 4.878,-2.453 18.174,-11.041 21.943,-6.095 2.241,2.94 -1.111,9.444 -2.845,11.784 -2.95,3.984 -9.801,7.013 -14.222,10.159 -23.673,16.847 -47.994,33.966 -65.016,56.889 -3.219,4.334 -6.742,9.421 -9.752,14.629 -2.952,5.107 -6.078,11.109 -6.501,17.879 2.251,1.312 3.398,-1.899 4.47,-2.845 10.092,-8.898 24.254,-16.331 37.384,-22.755 15.424,-7.547 31.773,-14.291 45.511,-23.162 17.788,-37.476 33.691,-76.834 57.702,-108.089 0.346,-0.075 0.383,0.159 0.406,0.406 23.481,31.647 40.025,70.231 57.295,108.089 25.879,16.967 59.649,26.046 82.896,46.324 1.308,1.144 2.495,3.086 4.467,3.251 z M 383.03,205.614 c -5.326,8.765 -10.966,19.369 -11.784,31.289 7.956,-1.877 17.251,-1.709 25.194,0 -2.338,-11.427 -7.132,-24.74 -13.41,-31.289 z m -22.756,76.8 c -2.804,3.654 -4.838,5.731 -6.095,9.346 -3.176,9.131 -0.754,19.768 2.844,25.193 1.479,2.231 7.005,7.442 10.565,9.346 9.049,4.838 22.396,6.432 32.102,0.813 3.16,-1.83 8.805,-6.691 10.564,-9.346 4.249,-6.407 5.258,-18.255 2.845,-25.194 -0.981,-2.822 -3.525,-6.484 -5.688,-9.346 -4.621,-6.114 -7.376,-7.492 -14.629,-9.752 -4.638,-1.446 -9.71,-2.562 -15.441,-1.625 -9.349,1.526 -12.785,4.984 -17.067,10.565 z"
   id="path900" />

	
	
</g>
    </g>
  </g>
</svg>
